G04 EAGLE Gerber RS-274X export*
G75*
%MOMM*%
%FSLAX34Y34*%
%LPD*%
%INBottom Copper*%
%IPPOS*%
%AMOC8*
5,1,8,0,0,1.08239X$1,22.5*%
G01*
%ADD10C,0.152400*%
%ADD11C,0.756400*%


D10*
X100584Y143256D02*
X141732Y143256D01*
D11*
X141732Y143256D03*
X100584Y143256D03*
D10*
X310896Y118872D02*
X310896Y103632D01*
X289560Y82296D01*
X259080Y82296D01*
X240792Y64008D01*
X62484Y64008D01*
X50292Y76200D01*
D11*
X310896Y118872D03*
X50292Y76200D03*
D10*
X268224Y96012D02*
X294132Y96012D01*
X268224Y96012D02*
X239268Y67056D01*
X88392Y67056D01*
X79248Y76200D01*
D11*
X294132Y96012D03*
X79248Y76200D03*
D10*
X160044Y92988D02*
X160044Y101608D01*
X160044Y92988D02*
X144780Y77724D01*
X141732Y77724D01*
X140208Y76200D01*
X103632Y76200D01*
D11*
X160044Y101608D03*
X103632Y76200D03*
D10*
X153424Y108704D02*
X153924Y108704D01*
X153424Y108704D02*
X128016Y83296D01*
X128016Y82296D01*
D11*
X153924Y108704D03*
X128016Y82296D03*
D10*
X149352Y94488D02*
X152400Y94488D01*
X149352Y94488D02*
X137160Y82296D01*
D11*
X152400Y94488D03*
X137160Y82296D03*
D10*
X166140Y77700D02*
X166140Y152448D01*
X166140Y77700D02*
X167640Y76200D01*
D11*
X166140Y152448D03*
X167640Y76200D03*
D10*
X172236Y89892D02*
X172236Y171712D01*
X172236Y89892D02*
X173736Y88392D01*
D11*
X172236Y171712D03*
X173736Y88392D03*
D10*
X286512Y118872D02*
X286512Y143256D01*
X286512Y118872D02*
X237744Y70104D01*
X204216Y70104D01*
X198120Y76200D01*
D11*
X286512Y143256D03*
X198120Y76200D03*
D10*
X204216Y166116D02*
X198120Y172212D01*
X204216Y166116D02*
X204216Y102108D01*
D11*
X198120Y172212D03*
X204216Y102108D03*
D10*
X198120Y99060D02*
X198120Y163068D01*
X198120Y99060D02*
X220980Y76200D01*
D11*
X198120Y163068D03*
X220980Y76200D03*
D10*
X210312Y100584D02*
X210312Y158496D01*
X210312Y100584D02*
X234696Y76200D01*
D11*
X210312Y158496D03*
X234696Y76200D03*
D10*
X225552Y143256D02*
X225552Y152400D01*
X225552Y143256D02*
X263652Y105156D01*
D11*
X225552Y152400D03*
X263652Y105156D03*
D10*
X283464Y76200D02*
X297180Y76200D01*
D11*
X283464Y76200D03*
X297180Y76200D03*
D10*
X329184Y82296D02*
X440436Y82296D01*
X446532Y76200D01*
D11*
X329184Y82296D03*
X446532Y76200D03*
M02*
