G04 EAGLE Gerber RS-274X export*
G75*
%MOMM*%
%FSLAX34Y34*%
%LPD*%
%INTop Copper*%
%IPPOS*%
%AMOC8*
5,1,8,0,0,1.08239X$1,22.5*%
G01*
%ADD10R,1.500000X1.300000*%
%ADD11R,1.500000X6.000000*%
%ADD12R,1.000000X6.000000*%
%ADD13R,1.400900X0.279400*%
%ADD14C,0.152400*%
%ADD15C,0.756400*%


D10*
X127000Y187300D03*
X127000Y168300D03*
D11*
X20000Y40000D03*
D12*
X37500Y40000D03*
X52500Y40000D03*
X67500Y40000D03*
X82500Y40000D03*
X97500Y40000D03*
X112500Y40000D03*
X127500Y40000D03*
X142500Y40000D03*
X157500Y40000D03*
X172500Y40000D03*
X187500Y40000D03*
X202500Y40000D03*
X217500Y40000D03*
X232500Y40000D03*
X247500Y40000D03*
X262500Y40000D03*
X277500Y40000D03*
X292500Y40000D03*
X307500Y40000D03*
X322500Y40000D03*
X337500Y40000D03*
X352500Y40000D03*
X367500Y40000D03*
X382500Y40000D03*
X397500Y40000D03*
X412500Y40000D03*
X427500Y40000D03*
X442500Y40000D03*
X457500Y40000D03*
X472500Y40000D03*
D11*
X490000Y40000D03*
D13*
X184512Y177200D03*
X184512Y172200D03*
X184512Y167200D03*
X184512Y162200D03*
X184512Y157200D03*
X184512Y152200D03*
X184512Y147200D03*
X184512Y142200D03*
X184512Y137200D03*
X184512Y132200D03*
X184512Y127200D03*
X184512Y122200D03*
X184512Y117200D03*
X184512Y112200D03*
X184512Y107200D03*
X184512Y102200D03*
X323489Y102200D03*
X323489Y107200D03*
X323489Y112200D03*
X323489Y117200D03*
X323489Y122200D03*
X323489Y127200D03*
X323489Y132200D03*
X323489Y137200D03*
X323489Y142200D03*
X323489Y147200D03*
X323489Y152200D03*
X323489Y157200D03*
X323489Y162200D03*
X323489Y167200D03*
X323489Y172200D03*
X323489Y177200D03*
D14*
X127000Y187300D02*
X126492Y187960D01*
X127000Y187300D02*
X128016Y186436D01*
X259080Y137160D02*
X280416Y137160D01*
X321564Y137160D01*
X259080Y137160D02*
X208788Y187452D01*
X127000Y187452D01*
X321564Y137160D02*
X323489Y137200D01*
X127000Y187300D02*
X127000Y187452D01*
X489204Y94488D02*
X489204Y41148D01*
X489204Y94488D02*
X402336Y181356D01*
X315468Y181356D01*
X280416Y146304D01*
X280416Y137160D01*
X489204Y41148D02*
X490000Y40000D01*
X127000Y187300D02*
X126492Y187452D01*
X126492Y169672D02*
X127000Y168300D01*
X142732Y142256D02*
X184506Y142256D01*
X142732Y142256D02*
X141732Y143256D01*
X184506Y142256D02*
X184512Y142200D01*
X127000Y168300D02*
X125628Y168300D01*
X123444Y166116D02*
X102108Y144780D01*
X123444Y166116D02*
X125628Y168300D01*
X100584Y143256D02*
X21336Y64008D01*
X21336Y41148D01*
X20000Y40000D01*
D15*
X141732Y143256D03*
X100584Y143256D03*
D14*
X127000Y168300D02*
X126492Y169164D01*
X127000Y168300D02*
X123444Y166116D01*
X102108Y144780D02*
X100584Y143256D01*
X312420Y117348D02*
X321564Y117348D01*
X312420Y117348D02*
X310896Y118872D01*
X50292Y76200D02*
X38100Y64008D01*
X38100Y41148D01*
X321564Y117348D02*
X323489Y117200D01*
X38100Y41148D02*
X37500Y40000D01*
D15*
X310896Y118872D03*
X50292Y76200D03*
D14*
X278892Y112776D02*
X321564Y112776D01*
X278892Y112776D02*
X207264Y184404D01*
X169164Y184404D01*
X53340Y68580D01*
X53340Y41148D01*
X321564Y112776D02*
X323489Y112200D01*
X53340Y41148D02*
X52500Y40000D01*
X323088Y106680D02*
X331184Y106680D01*
X333232Y104632D01*
X333232Y98584D01*
X330660Y96012D01*
X294132Y96012D01*
X79248Y76200D02*
X68580Y65532D01*
X68580Y41148D01*
X323088Y106680D02*
X323489Y107200D01*
X68580Y41148D02*
X67500Y40000D01*
D15*
X294132Y96012D03*
X79248Y76200D03*
D14*
X284988Y102108D02*
X321564Y102108D01*
X284988Y102108D02*
X205740Y181356D01*
X170688Y181356D01*
X85344Y96012D01*
X85344Y42672D01*
X83820Y41148D01*
X321564Y102108D02*
X323489Y102200D01*
X83820Y41148D02*
X82500Y40000D01*
X160044Y101608D02*
X160544Y102108D01*
X184404Y102108D01*
X103632Y76200D02*
X103632Y47244D01*
X97536Y41148D01*
X184404Y102108D02*
X184512Y102200D01*
X97536Y41148D02*
X97500Y40000D01*
D15*
X160044Y101608D03*
X103632Y76200D03*
D14*
X154924Y107704D02*
X184456Y107704D01*
X154924Y107704D02*
X153924Y108704D01*
X128016Y82296D02*
X128016Y79248D01*
X112776Y64008D01*
X112776Y41148D01*
X184512Y107200D02*
X184456Y107704D01*
X112776Y41148D02*
X112500Y40000D01*
D15*
X153924Y108704D03*
X128016Y82296D03*
D14*
X184564Y112252D02*
X192548Y112252D01*
X184564Y112252D02*
X184512Y112200D01*
X192548Y112252D02*
X195072Y109728D01*
X195072Y100584D01*
X188976Y94488D01*
X152400Y94488D01*
X137160Y82296D02*
X137160Y73152D01*
X128016Y64008D01*
X128016Y41148D01*
X127500Y40000D01*
D15*
X152400Y94488D03*
X137160Y82296D03*
D14*
X153924Y117348D02*
X184404Y117348D01*
X153924Y117348D02*
X143256Y106680D01*
X143256Y41148D01*
X184512Y117200D02*
X184404Y117348D01*
X143256Y41148D02*
X142500Y40000D01*
X175308Y166116D02*
X184404Y166116D01*
X166140Y156948D02*
X166140Y152448D01*
X166140Y156948D02*
X175308Y166116D01*
X167640Y76200D02*
X158496Y67056D01*
X158496Y41148D01*
X184404Y166116D02*
X184512Y167200D01*
X158496Y41148D02*
X157500Y40000D01*
D15*
X166140Y152448D03*
X167640Y76200D03*
D14*
X184024Y171712D02*
X184512Y172200D01*
X184024Y171712D02*
X172236Y171712D01*
X173736Y88392D02*
X173736Y41148D01*
X172500Y40000D01*
D15*
X172236Y171712D03*
X173736Y88392D03*
D14*
X315468Y172212D02*
X321564Y172212D01*
X315468Y172212D02*
X286512Y143256D01*
X198120Y76200D02*
X188976Y67056D01*
X188976Y41148D01*
X321564Y172212D02*
X323489Y172200D01*
X188976Y41148D02*
X187500Y40000D01*
D15*
X286512Y143256D03*
X198120Y76200D03*
D14*
X193548Y176784D02*
X185928Y176784D01*
X193548Y176784D02*
X198120Y172212D01*
X204216Y102108D02*
X204216Y42672D01*
X202692Y41148D01*
X185928Y176784D02*
X184512Y177200D01*
X202692Y41148D02*
X202500Y40000D01*
D15*
X198120Y172212D03*
X204216Y102108D03*
D14*
X193548Y121920D02*
X185928Y121920D01*
X193548Y121920D02*
X214884Y100584D01*
X214884Y42672D01*
X216408Y41148D01*
X185928Y121920D02*
X184512Y122200D01*
X216408Y41148D02*
X217500Y40000D01*
X198120Y163068D02*
X185928Y163068D01*
X220980Y76200D02*
X231648Y65532D01*
X231648Y41148D01*
X184512Y162200D02*
X185928Y163068D01*
X231648Y41148D02*
X232500Y40000D01*
D15*
X198120Y163068D03*
X220980Y76200D03*
D14*
X208788Y156972D02*
X185928Y156972D01*
X208788Y156972D02*
X210312Y158496D01*
X234696Y76200D02*
X246888Y64008D01*
X246888Y41148D01*
X185928Y156972D02*
X184512Y157200D01*
X246888Y41148D02*
X247500Y40000D01*
D15*
X210312Y158496D03*
X234696Y76200D03*
D14*
X202692Y126492D02*
X185928Y126492D01*
X202692Y126492D02*
X262128Y67056D01*
X262128Y41148D01*
X185928Y126492D02*
X184512Y127200D01*
X262128Y41148D02*
X262500Y40000D01*
X210312Y131064D02*
X185928Y131064D01*
X210312Y131064D02*
X277368Y64008D01*
X277368Y41148D01*
X185928Y131064D02*
X184512Y132200D01*
X277368Y41148D02*
X277500Y40000D01*
X225552Y152400D02*
X185928Y152400D01*
X263652Y105156D02*
X291084Y77724D01*
X291084Y41148D01*
X185928Y152400D02*
X184512Y152200D01*
X291084Y41148D02*
X292500Y40000D01*
D15*
X225552Y152400D03*
X263652Y105156D03*
D14*
X222504Y137160D02*
X185928Y137160D01*
X222504Y137160D02*
X283464Y76200D01*
X297180Y76200D02*
X306324Y67056D01*
X306324Y41148D01*
X185928Y137160D02*
X184512Y137200D01*
X306324Y41148D02*
X307500Y40000D01*
D15*
X283464Y76200D03*
X297180Y76200D03*
D14*
X323088Y121920D02*
X332184Y121920D01*
X336280Y117824D01*
X336280Y77200D01*
X323088Y64008D01*
X323088Y41148D01*
X323088Y121920D02*
X323489Y122200D01*
X323088Y41148D02*
X322500Y40000D01*
X323088Y126492D02*
X332184Y126492D01*
X340328Y118348D01*
X340328Y43921D01*
X323088Y126492D02*
X323489Y127200D01*
X340328Y43921D02*
X337500Y40000D01*
X333756Y131064D02*
X323088Y131064D01*
X333756Y131064D02*
X352044Y112776D01*
X352044Y41148D01*
X323088Y131064D02*
X323489Y132200D01*
X352044Y41148D02*
X352500Y40000D01*
X323489Y142200D02*
X324021Y142732D01*
X330184Y142732D01*
X367284Y105632D01*
X367284Y41148D01*
X367500Y40000D01*
X330184Y147304D02*
X323593Y147304D01*
X323489Y147200D01*
X330184Y147304D02*
X381000Y96488D01*
X381000Y41148D01*
X382500Y40000D01*
X367284Y152400D02*
X323088Y152400D01*
X367284Y152400D02*
X396240Y123444D01*
X396240Y41148D01*
X323489Y152200D02*
X323088Y152400D01*
X396240Y41148D02*
X397500Y40000D01*
X397764Y156972D02*
X323088Y156972D01*
X397764Y156972D02*
X411480Y143256D01*
X411480Y41148D01*
X323489Y157200D02*
X323088Y156972D01*
X411480Y41148D02*
X412500Y40000D01*
X397764Y161544D02*
X323088Y161544D01*
X397764Y161544D02*
X426720Y132588D01*
X426720Y41148D01*
X323088Y161544D02*
X323489Y162200D01*
X426720Y41148D02*
X427500Y40000D01*
X408432Y166116D02*
X323088Y166116D01*
X408432Y166116D02*
X440436Y134112D01*
X440436Y42672D01*
X441960Y41148D01*
X323088Y166116D02*
X323489Y167200D01*
X441960Y41148D02*
X442500Y40000D01*
X234696Y146304D02*
X185928Y146304D01*
X234696Y146304D02*
X298704Y82296D01*
X329184Y82296D01*
X446532Y76200D02*
X457200Y65532D01*
X457200Y41148D01*
X185928Y146304D02*
X184512Y147200D01*
X457200Y41148D02*
X457500Y40000D01*
D15*
X329184Y82296D03*
X446532Y76200D03*
D14*
X402336Y176784D02*
X323088Y176784D01*
X402336Y176784D02*
X472440Y106680D01*
X472440Y41148D01*
X323489Y177200D02*
X323088Y176784D01*
X472440Y41148D02*
X472500Y40000D01*
M02*
