G04 EAGLE Gerber RS-274X export*
G75*
%MOMM*%
%FSLAX34Y34*%
%LPD*%
%INSolderpaste Top*%
%IPPOS*%
%AMOC8*
5,1,8,0,0,1.08239X$1,22.5*%
G01*
%ADD10R,1.500000X1.300000*%
%ADD11R,1.500000X6.000000*%
%ADD12R,1.000000X6.000000*%
%ADD13R,1.400900X0.279400*%


D10*
X127000Y187300D03*
X127000Y168300D03*
D11*
X20000Y40000D03*
D12*
X37500Y40000D03*
X52500Y40000D03*
X67500Y40000D03*
X82500Y40000D03*
X97500Y40000D03*
X112500Y40000D03*
X127500Y40000D03*
X142500Y40000D03*
X157500Y40000D03*
X172500Y40000D03*
X187500Y40000D03*
X202500Y40000D03*
X217500Y40000D03*
X232500Y40000D03*
X247500Y40000D03*
X262500Y40000D03*
X277500Y40000D03*
X292500Y40000D03*
X307500Y40000D03*
X322500Y40000D03*
X337500Y40000D03*
X352500Y40000D03*
X367500Y40000D03*
X382500Y40000D03*
X397500Y40000D03*
X412500Y40000D03*
X427500Y40000D03*
X442500Y40000D03*
X457500Y40000D03*
X472500Y40000D03*
D11*
X490000Y40000D03*
D13*
X184512Y177200D03*
X184512Y172200D03*
X184512Y167200D03*
X184512Y162200D03*
X184512Y157200D03*
X184512Y152200D03*
X184512Y147200D03*
X184512Y142200D03*
X184512Y137200D03*
X184512Y132200D03*
X184512Y127200D03*
X184512Y122200D03*
X184512Y117200D03*
X184512Y112200D03*
X184512Y107200D03*
X184512Y102200D03*
X323489Y102200D03*
X323489Y107200D03*
X323489Y112200D03*
X323489Y117200D03*
X323489Y122200D03*
X323489Y127200D03*
X323489Y132200D03*
X323489Y137200D03*
X323489Y142200D03*
X323489Y147200D03*
X323489Y152200D03*
X323489Y157200D03*
X323489Y162200D03*
X323489Y167200D03*
X323489Y172200D03*
X323489Y177200D03*
M02*
